<svg aria-roledescription="er" role="graphics-document document" viewBox="0 0 419.9295654296875 386" style="max-width: 419.93px; background-color: white;" xmlns:xlink="http://www.w3.org/1999/xlink" xmlns="http://www.w3.org/2000/svg" width="100%" id="my-svg"><style>#my-svg{font-family:"trebuchet ms",verdana,arial,sans-serif;font-size:16px;fill:#333;}#my-svg .error-icon{fill:#552222;}#my-svg .error-text{fill:#552222;stroke:#552222;}#my-svg .edge-thickness-normal{stroke-width:2px;}#my-svg .edge-thickness-thick{stroke-width:3.5px;}#my-svg .edge-pattern-solid{stroke-dasharray:0;}#my-svg .edge-pattern-dashed{stroke-dasharray:3;}#my-svg .edge-pattern-dotted{stroke-dasharray:2;}#my-svg .marker{fill:#333333;stroke:#333333;}#my-svg .marker.cross{stroke:#333333;}#my-svg svg{font-family:"trebuchet ms",verdana,arial,sans-serif;font-size:16px;}#my-svg .entityBox{fill:#ECECFF;stroke:#9370DB;}#my-svg .attributeBoxOdd{fill:#ffffff;stroke:#9370DB;}#my-svg .attributeBoxEven{fill:#f2f2f2;stroke:#9370DB;}#my-svg .relationshipLabelBox{fill:hsl(80, 100%, 96.2745098039%);opacity:0.7;background-color:hsl(80, 100%, 96.2745098039%);}#my-svg .relationshipLabelBox rect{opacity:0.5;}#my-svg .relationshipLine{stroke:#333333;}#my-svg .entityTitleText{text-anchor:middle;font-size:18px;fill:#333;}#my-svg #MD_PARENT_START{fill:#f5f5f5!important;stroke:#333333!important;stroke-width:1;}#my-svg #MD_PARENT_END{fill:#f5f5f5!important;stroke:#333333!important;stroke-width:1;}#my-svg :root{--mermaid-font-family:"trebuchet ms",verdana,arial,sans-serif;}</style><g/><defs><marker orient="auto" markerHeight="240" markerWidth="190" refY="7" refX="0" id="MD_PARENT_START"><path d="M 18,7 L9,13 L1,7 L9,1 Z"/></marker></defs><defs><marker orient="auto" markerHeight="28" markerWidth="20" refY="7" refX="19" id="MD_PARENT_END"><path d="M 18,7 L9,13 L1,7 L9,1 Z"/></marker></defs><defs><marker orient="auto" markerHeight="18" markerWidth="18" refY="9" refX="0" id="ONLY_ONE_START"><path d="M9,0 L9,18 M15,0 L15,18" fill="none" stroke="gray"/></marker></defs><defs><marker orient="auto" markerHeight="18" markerWidth="18" refY="9" refX="18" id="ONLY_ONE_END"><path d="M3,0 L3,18 M9,0 L9,18" fill="none" stroke="gray"/></marker></defs><defs><marker orient="auto" markerHeight="18" markerWidth="30" refY="9" refX="0" id="ZERO_OR_ONE_START"><circle r="6" cy="9" cx="21" fill="white" stroke="gray"/><path d="M9,0 L9,18" fill="none" stroke="gray"/></marker></defs><defs><marker orient="auto" markerHeight="18" markerWidth="30" refY="9" refX="30" id="ZERO_OR_ONE_END"><circle r="6" cy="9" cx="9" fill="white" stroke="gray"/><path d="M21,0 L21,18" fill="none" stroke="gray"/></marker></defs><defs><marker orient="auto" markerHeight="36" markerWidth="45" refY="18" refX="18" id="ONE_OR_MORE_START"><path d="M0,18 Q 18,0 36,18 Q 18,36 0,18 M42,9 L42,27" fill="none" stroke="gray"/></marker></defs><defs><marker orient="auto" markerHeight="36" markerWidth="45" refY="18" refX="27" id="ONE_OR_MORE_END"><path d="M3,9 L3,27 M9,18 Q27,0 45,18 Q27,36 9,18" fill="none" stroke="gray"/></marker></defs><defs><marker orient="auto" markerHeight="36" markerWidth="57" refY="18" refX="18" id="ZERO_OR_MORE_START"><circle r="6" cy="18" cx="48" fill="white" stroke="gray"/><path d="M0,18 Q18,0 36,18 Q18,36 0,18" fill="none" stroke="gray"/></marker></defs><defs><marker orient="auto" markerHeight="36" markerWidth="57" refY="18" refX="39" id="ZERO_OR_MORE_END"><circle r="6" cy="18" cx="9" fill="white" stroke="gray"/><path d="M21,18 Q39,0 57,18 Q39,36 21,18" fill="none" stroke="gray"/></marker></defs><path style="stroke: gray; fill: none;" marker-start="url(#ONLY_ONE_START)" marker-end="url(#ZERO_OR_MORE_END)" d="M209.96478271484375,132L209.96478271484375,140.33333333333334C209.96478271484375,148.66666666666666,209.96478271484375,165.33333333333334,209.96478271484375,182C209.96478271484375,198.66666666666666,209.96478271484375,215.33333333333334,209.96478271484375,223.66666666666666L209.96478271484375,232" class="er relationshipLine"/><g transform="translate(47.14654541015625,20 )" id="entity-books-6df542cd-2488-5f8f-8c0d-acd20e807fe7"><rect height="112" width="325.63645935058594" y="0" x="0" class="er entityBox"/><text style="dominant-baseline: middle; text-anchor: middle; font-size: 12px;" transform="translate(162.81822967529297,12)" y="0" x="0" id="text-entity-books-6df542cd-2488-5f8f-8c0d-acd20e807fe7" class="er entityLabel">books</text><rect height="22" width="76.42404174804688" y="24" x="0" class="er attributeBoxOdd"/><text style="dominant-baseline: middle; font-size: 10.2px;" transform="translate(5,35)" y="0" x="0" id="text-entity-books-6df542cd-2488-5f8f-8c0d-acd20e807fe7-attr-1-type" class="er entityLabel">CHAR(13)</text><rect height="22" width="165.8841094970703" y="24" x="76.42404174804688" class="er attributeBoxOdd"/><text style="dominant-baseline: middle; font-size: 10.2px;" transform="translate(81.42404174804688,35)" y="0" x="0" id="text-entity-books-6df542cd-2488-5f8f-8c0d-acd20e807fe7-attr-1-name" class="er entityLabel">isbn_code(NOT_NULL)</text><rect height="22" width="22.68768310546875" y="24" x="242.3081512451172" class="er attributeBoxOdd"/><text style="dominant-baseline: middle; font-size: 10.2px;" transform="translate(247.3081512451172,35)" y="0" x="0" id="text-entity-books-6df542cd-2488-5f8f-8c0d-acd20e807fe7-attr-1-key" class="er entityLabel">PK</text><rect height="22" width="60.640625" y="24" x="264.99583435058594" class="er attributeBoxOdd"/><text style="dominant-baseline: middle; font-size: 10.2px;" transform="translate(269.99583435058594,35)" y="0" x="0" id="text-entity-books-6df542cd-2488-5f8f-8c0d-acd20e807fe7-attr-1-comment" class="er entityLabel">ISBNコード</text><rect height="22" width="76.42404174804688" y="46" x="0" class="er attributeBoxEven"/><text style="dominant-baseline: middle; font-size: 10.2px;" transform="translate(5,57)" y="0" x="0" id="text-entity-books-6df542cd-2488-5f8f-8c0d-acd20e807fe7-attr-2-type" class="er entityLabel">VARCHAR(256)</text><rect height="22" width="165.8841094970703" y="46" x="76.42404174804688" class="er attributeBoxEven"/><text style="dominant-baseline: middle; font-size: 10.2px;" transform="translate(81.42404174804688,57)" y="0" x="0" id="text-entity-books-6df542cd-2488-5f8f-8c0d-acd20e807fe7-attr-2-name" class="er entityLabel">title(NOT_NULL)</text><rect height="22" width="22.68768310546875" y="46" x="242.3081512451172" class="er attributeBoxEven"/><text style="dominant-baseline: middle; font-size: 10.2px;" transform="translate(247.3081512451172,57)" y="0" x="0" id="text-entity-books-6df542cd-2488-5f8f-8c0d-acd20e807fe7-attr-2-key" class="er entityLabel"/><rect height="22" width="60.640625" y="46" x="264.99583435058594" class="er attributeBoxEven"/><text style="dominant-baseline: middle; font-size: 10.2px;" transform="translate(269.99583435058594,57)" y="0" x="0" id="text-entity-books-6df542cd-2488-5f8f-8c0d-acd20e807fe7-attr-2-comment" class="er entityLabel">タイトル</text><rect height="22" width="76.42404174804688" y="68" x="0" class="er attributeBoxOdd"/><text style="dominant-baseline: middle; font-size: 10.2px;" transform="translate(5,79)" y="0" x="0" id="text-entity-books-6df542cd-2488-5f8f-8c0d-acd20e807fe7-attr-3-type" class="er entityLabel">DATETIME</text><rect height="22" width="165.8841094970703" y="68" x="76.42404174804688" class="er attributeBoxOdd"/><text style="dominant-baseline: middle; font-size: 10.2px;" transform="translate(81.42404174804688,79)" y="0" x="0" id="text-entity-books-6df542cd-2488-5f8f-8c0d-acd20e807fe7-attr-3-name" class="er entityLabel">registration_datetime(NOT_NULL)</text><rect height="22" width="22.68768310546875" y="68" x="242.3081512451172" class="er attributeBoxOdd"/><text style="dominant-baseline: middle; font-size: 10.2px;" transform="translate(247.3081512451172,79)" y="0" x="0" id="text-entity-books-6df542cd-2488-5f8f-8c0d-acd20e807fe7-attr-3-key" class="er entityLabel"/><rect height="22" width="60.640625" y="68" x="264.99583435058594" class="er attributeBoxOdd"/><text style="dominant-baseline: middle; font-size: 10.2px;" transform="translate(269.99583435058594,79)" y="0" x="0" id="text-entity-books-6df542cd-2488-5f8f-8c0d-acd20e807fe7-attr-3-comment" class="er entityLabel">登録日時</text><rect height="22" width="76.42404174804688" y="90" x="0" class="er attributeBoxEven"/><text style="dominant-baseline: middle; font-size: 10.2px;" transform="translate(5,101)" y="0" x="0" id="text-entity-books-6df542cd-2488-5f8f-8c0d-acd20e807fe7-attr-4-type" class="er entityLabel">DATETIME</text><rect height="22" width="165.8841094970703" y="90" x="76.42404174804688" class="er attributeBoxEven"/><text style="dominant-baseline: middle; font-size: 10.2px;" transform="translate(81.42404174804688,101)" y="0" x="0" id="text-entity-books-6df542cd-2488-5f8f-8c0d-acd20e807fe7-attr-4-name" class="er entityLabel">update_datetime</text><rect height="22" width="22.68768310546875" y="90" x="242.3081512451172" class="er attributeBoxEven"/><text style="dominant-baseline: middle; font-size: 10.2px;" transform="translate(247.3081512451172,101)" y="0" x="0" id="text-entity-books-6df542cd-2488-5f8f-8c0d-acd20e807fe7-attr-4-key" class="er entityLabel"/><rect height="22" width="60.640625" y="90" x="264.99583435058594" class="er attributeBoxEven"/><text style="dominant-baseline: middle; font-size: 10.2px;" transform="translate(269.99583435058594,101)" y="0" x="0" id="text-entity-books-6df542cd-2488-5f8f-8c0d-acd20e807fe7-attr-4-comment" class="er entityLabel">更新日時</text></g><g transform="translate(20,232 )" id="entity-authors-ecd6b568-b329-5b46-8e40-db5fd7385619"><rect height="134" width="379.9295654296875" y="0" x="0" class="er entityBox"/><text style="dominant-baseline: middle; text-anchor: middle; font-size: 12px;" transform="translate(189.96478271484375,12)" y="0" x="0" id="text-entity-authors-ecd6b568-b329-5b46-8e40-db5fd7385619" class="er entityLabel">authors</text><rect height="22" width="130.71714782714844" y="24" x="0" class="er attributeBoxOdd"/><text style="dominant-baseline: middle; font-size: 10.2px;" transform="translate(5,35)" y="0" x="0" id="text-entity-authors-ecd6b568-b329-5b46-8e40-db5fd7385619-attr-1-type" class="er entityLabel">BIGINT(AUTO_INCREMENT)</text><rect height="22" width="165.8841094970703" y="24" x="130.71714782714844" class="er attributeBoxOdd"/><text style="dominant-baseline: middle; font-size: 10.2px;" transform="translate(135.71714782714844,35)" y="0" x="0" id="text-entity-authors-ecd6b568-b329-5b46-8e40-db5fd7385619-attr-1-name" class="er entityLabel">id(NOT_NULL)</text><rect height="22" width="22.68768310546875" y="24" x="296.60125732421875" class="er attributeBoxOdd"/><text style="dominant-baseline: middle; font-size: 10.2px;" transform="translate(301.60125732421875,35)" y="0" x="0" id="text-entity-authors-ecd6b568-b329-5b46-8e40-db5fd7385619-attr-1-key" class="er entityLabel">PK</text><rect height="22" width="60.640625" y="24" x="319.2889404296875" class="er attributeBoxOdd"/><text style="dominant-baseline: middle; font-size: 10.2px;" transform="translate(324.2889404296875,35)" y="0" x="0" id="text-entity-authors-ecd6b568-b329-5b46-8e40-db5fd7385619-attr-1-comment" class="er entityLabel">ID</text><rect height="22" width="130.71714782714844" y="46" x="0" class="er attributeBoxEven"/><text style="dominant-baseline: middle; font-size: 10.2px;" transform="translate(5,57)" y="0" x="0" id="text-entity-authors-ecd6b568-b329-5b46-8e40-db5fd7385619-attr-2-type" class="er entityLabel">CHAR(13)</text><rect height="22" width="165.8841094970703" y="46" x="130.71714782714844" class="er attributeBoxEven"/><text style="dominant-baseline: middle; font-size: 10.2px;" transform="translate(135.71714782714844,57)" y="0" x="0" id="text-entity-authors-ecd6b568-b329-5b46-8e40-db5fd7385619-attr-2-name" class="er entityLabel">isbn_code(NOT_NULL)</text><rect height="22" width="22.68768310546875" y="46" x="296.60125732421875" class="er attributeBoxEven"/><text style="dominant-baseline: middle; font-size: 10.2px;" transform="translate(301.60125732421875,57)" y="0" x="0" id="text-entity-authors-ecd6b568-b329-5b46-8e40-db5fd7385619-attr-2-key" class="er entityLabel">FK</text><rect height="22" width="60.640625" y="46" x="319.2889404296875" class="er attributeBoxEven"/><text style="dominant-baseline: middle; font-size: 10.2px;" transform="translate(324.2889404296875,57)" y="0" x="0" id="text-entity-authors-ecd6b568-b329-5b46-8e40-db5fd7385619-attr-2-comment" class="er entityLabel">ISBNコード</text><rect height="22" width="130.71714782714844" y="68" x="0" class="er attributeBoxOdd"/><text style="dominant-baseline: middle; font-size: 10.2px;" transform="translate(5,79)" y="0" x="0" id="text-entity-authors-ecd6b568-b329-5b46-8e40-db5fd7385619-attr-3-type" class="er entityLabel">VARCHAR(64)</text><rect height="22" width="165.8841094970703" y="68" x="130.71714782714844" class="er attributeBoxOdd"/><text style="dominant-baseline: middle; font-size: 10.2px;" transform="translate(135.71714782714844,79)" y="0" x="0" id="text-entity-authors-ecd6b568-b329-5b46-8e40-db5fd7385619-attr-3-name" class="er entityLabel">name(NOT_NULL)</text><rect height="22" width="22.68768310546875" y="68" x="296.60125732421875" class="er attributeBoxOdd"/><text style="dominant-baseline: middle; font-size: 10.2px;" transform="translate(301.60125732421875,79)" y="0" x="0" id="text-entity-authors-ecd6b568-b329-5b46-8e40-db5fd7385619-attr-3-key" class="er entityLabel"/><rect height="22" width="60.640625" y="68" x="319.2889404296875" class="er attributeBoxOdd"/><text style="dominant-baseline: middle; font-size: 10.2px;" transform="translate(324.2889404296875,79)" y="0" x="0" id="text-entity-authors-ecd6b568-b329-5b46-8e40-db5fd7385619-attr-3-comment" class="er entityLabel">著者名</text><rect height="22" width="130.71714782714844" y="90" x="0" class="er attributeBoxEven"/><text style="dominant-baseline: middle; font-size: 10.2px;" transform="translate(5,101)" y="0" x="0" id="text-entity-authors-ecd6b568-b329-5b46-8e40-db5fd7385619-attr-4-type" class="er entityLabel">DATETIME</text><rect height="22" width="165.8841094970703" y="90" x="130.71714782714844" class="er attributeBoxEven"/><text style="dominant-baseline: middle; font-size: 10.2px;" transform="translate(135.71714782714844,101)" y="0" x="0" id="text-entity-authors-ecd6b568-b329-5b46-8e40-db5fd7385619-attr-4-name" class="er entityLabel">registration_datetime(NOT_NULL)</text><rect height="22" width="22.68768310546875" y="90" x="296.60125732421875" class="er attributeBoxEven"/><text style="dominant-baseline: middle; font-size: 10.2px;" transform="translate(301.60125732421875,101)" y="0" x="0" id="text-entity-authors-ecd6b568-b329-5b46-8e40-db5fd7385619-attr-4-key" class="er entityLabel"/><rect height="22" width="60.640625" y="90" x="319.2889404296875" class="er attributeBoxEven"/><text style="dominant-baseline: middle; font-size: 10.2px;" transform="translate(324.2889404296875,101)" y="0" x="0" id="text-entity-authors-ecd6b568-b329-5b46-8e40-db5fd7385619-attr-4-comment" class="er entityLabel">登録日時</text><rect height="22" width="130.71714782714844" y="112" x="0" class="er attributeBoxOdd"/><text style="dominant-baseline: middle; font-size: 10.2px;" transform="translate(5,123)" y="0" x="0" id="text-entity-authors-ecd6b568-b329-5b46-8e40-db5fd7385619-attr-5-type" class="er entityLabel">DATETIME</text><rect height="22" width="165.8841094970703" y="112" x="130.71714782714844" class="er attributeBoxOdd"/><text style="dominant-baseline: middle; font-size: 10.2px;" transform="translate(135.71714782714844,123)" y="0" x="0" id="text-entity-authors-ecd6b568-b329-5b46-8e40-db5fd7385619-attr-5-name" class="er entityLabel">update_datetime</text><rect height="22" width="22.68768310546875" y="112" x="296.60125732421875" class="er attributeBoxOdd"/><text style="dominant-baseline: middle; font-size: 10.2px;" transform="translate(301.60125732421875,123)" y="0" x="0" id="text-entity-authors-ecd6b568-b329-5b46-8e40-db5fd7385619-attr-5-key" class="er entityLabel"/><rect height="22" width="60.640625" y="112" x="319.2889404296875" class="er attributeBoxOdd"/><text style="dominant-baseline: middle; font-size: 10.2px;" transform="translate(324.2889404296875,123)" y="0" x="0" id="text-entity-authors-ecd6b568-b329-5b46-8e40-db5fd7385619-attr-5-comment" class="er entityLabel">更新日時</text></g><rect height="0" width="0" y="182" x="209.96478271484375" class="er relationshipLabelBox"/><text style="text-anchor: middle; dominant-baseline: middle; font-size: 12px;" y="182" x="209.96478271484375" id="rel1" class="er relationshipLabel"/></svg>